<svg width="19" height="14" viewBox="0 0 19 14" fill="none" xmlns="http://www.w3.org/2000/svg">
<path d="M0.833333 13.3333C0.597222 13.3333 0.399444 13.2533 0.24 13.0933C0.08 12.9339 0 12.7361 0 12.5V11C0 10.5278 0.121667 10.0936 0.365 9.6975C0.607778 9.30194 0.930556 9 1.33333 8.79167C2.19444 8.36111 3.06944 8.03806 3.95833 7.8225C4.84722 7.6075 5.75 7.5 6.66667 7.5C7.58333 7.5 8.48611 7.6075 9.375 7.8225C10.2639 8.03806 11.1389 8.36111 12 8.79167C12.4028 9 12.7256 9.30194 12.9683 9.6975C13.2117 10.0936 13.3333 10.5278 13.3333 11V12.5C13.3333 12.7361 13.2533 12.9339 13.0933 13.0933C12.9339 13.2533 12.7361 13.3333 12.5 13.3333H0.833333ZM14.6042 13.3333C14.7292 13.2361 14.8264 13.1144 14.8958 12.9683C14.9653 12.8228 15 12.6597 15 12.4792V10.8333C15 10.2222 14.83 9.63528 14.49 9.0725C14.1494 8.51028 13.6667 8.02778 13.0417 7.625C13.75 7.70833 14.4167 7.85055 15.0417 8.05167C15.6667 8.25333 16.25 8.5 16.7917 8.79167C17.2917 9.06944 17.6736 9.37833 17.9375 9.71833C18.2014 10.0589 18.3333 10.4306 18.3333 10.8333V12.5C18.3333 12.7361 18.2533 12.9339 18.0933 13.0933C17.9339 13.2533 17.7361 13.3333 17.5 13.3333H14.6042ZM6.66667 6.66667C5.75 6.66667 4.96528 6.34028 4.3125 5.6875C3.65972 5.03472 3.33333 4.25 3.33333 3.33333C3.33333 2.41667 3.65972 1.63194 4.3125 0.979167C4.96528 0.326389 5.75 0 6.66667 0C7.58333 0 8.36806 0.326389 9.02083 0.979167C9.67361 1.63194 10 2.41667 10 3.33333C10 4.25 9.67361 5.03472 9.02083 5.6875C8.36806 6.34028 7.58333 6.66667 6.66667 6.66667ZM15 3.33333C15 4.25 14.6736 5.03472 14.0208 5.6875C13.3681 6.34028 12.5833 6.66667 11.6667 6.66667C11.5139 6.66667 11.3194 6.64944 11.0833 6.615C10.8472 6.58 10.6528 6.54167 10.5 6.5C10.875 6.05556 11.1631 5.5625 11.3642 5.02083C11.5658 4.47917 11.6667 3.91667 11.6667 3.33333C11.6667 2.75 11.5658 2.1875 11.3642 1.64583C11.1631 1.10417 10.875 0.611111 10.5 0.166667C10.6944 0.0972221 10.8889 0.0519446 11.0833 0.0308335C11.2778 0.0102779 11.4722 0 11.6667 0C12.5833 0 13.3681 0.326389 14.0208 0.979167C14.6736 1.63194 15 2.41667 15 3.33333ZM1.66667 11.6667H11.6667V11C11.6667 10.8472 11.6286 10.7083 11.5525 10.5833C11.4758 10.4583 11.375 10.3611 11.25 10.2917C10.5 9.91667 9.74306 9.63528 8.97917 9.4475C8.21528 9.26028 7.44444 9.16667 6.66667 9.16667C5.88889 9.16667 5.11806 9.26028 4.35417 9.4475C3.59028 9.63528 2.83333 9.91667 2.08333 10.2917C1.95833 10.3611 1.85778 10.4583 1.78167 10.5833C1.705 10.7083 1.66667 10.8472 1.66667 11V11.6667ZM6.66667 5C7.125 5 7.5175 4.83667 7.84417 4.51C8.17028 4.18389 8.33333 3.79167 8.33333 3.33333C8.33333 2.875 8.17028 2.48278 7.84417 2.15667C7.5175 1.83 7.125 1.66667 6.66667 1.66667C6.20833 1.66667 5.81611 1.83 5.49 2.15667C5.16333 2.48278 5 2.875 5 3.33333C5 3.79167 5.16333 4.18389 5.49 4.51C5.81611 4.83667 6.20833 5 6.66667 5Z" fill="#8D8D8D"/>
</svg>
