<svg width="17" height="14" viewBox="0 0 17 14" fill="none" xmlns="http://www.w3.org/2000/svg">
<path d="M1.66667 11.6667H5V1.66667H1.66667V11.6667ZM6.66667 11.6667H10V1.66667H6.66667V11.6667ZM11.6667 11.6667H15V1.66667H11.6667V11.6667ZM1.66667 13.3333C1.20833 13.3333 0.816111 13.1703 0.49 12.8442C0.163333 12.5175 0 12.125 0 11.6667V1.66667C0 1.20833 0.163333 0.816111 0.49 0.49C0.816111 0.163333 1.20833 0 1.66667 0H15C15.4583 0 15.8508 0.163333 16.1775 0.49C16.5036 0.816111 16.6667 1.20833 16.6667 1.66667V11.6667C16.6667 12.125 16.5036 12.5175 16.1775 12.8442C15.8508 13.1703 15.4583 13.3333 15 13.3333H1.66667Z" fill="#8D8D8D"/>
</svg>
